<mxfile host="app.diagrams.net" agent="Mozilla/5.0 (Windows NT 10.0; Win64; x64) AppleWebKit/537.36 (KHTML, like Gecko) Chrome/131.0.0.0 Safari/537.36" version="25.0.1">
  <diagram name="PÃ¡gina-1" id="Ziy1TsZBCXwvY6_Hbtk9">
    <mxGraphModel grid="1" page="1" gridSize="10" guides="1" tooltips="1" connect="1" arrows="1" fold="1" pageScale="1" pageWidth="827" pageHeight="1169" math="0" shadow="0">
      <root>
        <mxCell id="0" />
        <mxCell id="1" parent="0" />
        <mxCell id="ziZQvLNmpFWHpJ9P69S1-1" value="&lt;b&gt;&lt;font style=&quot;font-size: 18px;&quot;&gt;SPLASH&lt;/font&gt;&lt;/b&gt;&lt;div&gt;&lt;b&gt;&lt;font size=&quot;3&quot;&gt;Grupo 14 (AM)&lt;/font&gt;&lt;/b&gt;&lt;/div&gt;&lt;div&gt;&lt;b&gt;&lt;font size=&quot;3&quot;&gt;V2024/12/04&lt;/font&gt;&lt;/b&gt;&lt;/div&gt;" style="shape=note;size=20;whiteSpace=wrap;html=1;fillColor=#dae8fc;strokeColor=#6c8ebf;" vertex="1" parent="1">
          <mxGeometry x="-810" y="-2330" width="200" height="80" as="geometry" />
        </mxCell>
        <mxCell id="pkMM4M_mx8QPYRCtAJ-O-5" value="&lt;h3 style=&quot;margin-top: -85px; margin-bottom: 0px; padding-top: 0px;&quot;&gt;&lt;br&gt;&lt;/h3&gt;" style="shape=cube;whiteSpace=wrap;html=1;boundedLbl=1;backgroundOutline=1;darkOpacity=0.05;darkOpacity2=0.1;align=center;" vertex="1" parent="1">
          <mxGeometry x="-790" y="-1960" width="480" height="403" as="geometry" />
        </mxCell>
        <mxCell id="ziZQvLNmpFWHpJ9P69S1-2" value="&lt;h3 style=&quot;margin-top: -85px; margin-bottom: 0px; padding-top: 0px;&quot;&gt;&lt;br&gt;&lt;/h3&gt;" style="shape=cube;whiteSpace=wrap;html=1;boundedLbl=1;backgroundOutline=1;darkOpacity=0.05;darkOpacity2=0.1;align=center;" vertex="1" parent="1">
          <mxGeometry x="-750" y="-1895" width="400" height="290" as="geometry" />
        </mxCell>
        <mxCell id="ziZQvLNmpFWHpJ9P69S1-6" value="&lt;h3 style=&quot;margin-top: -85px; margin-bottom: 0px; padding-top: 0px;&quot;&gt;&lt;br&gt;&lt;/h3&gt;" style="shape=cube;whiteSpace=wrap;html=1;boundedLbl=1;backgroundOutline=1;darkOpacity=0.05;darkOpacity2=0.1;align=center;" vertex="1" parent="1">
          <mxGeometry x="-620" y="-2210" width="285" height="200" as="geometry" />
        </mxCell>
        <mxCell id="pkMM4M_mx8QPYRCtAJ-O-2" value="&lt;h3 style=&quot;margin-top: -85px; margin-bottom: 0px; padding-top: 0px;&quot;&gt;&lt;br&gt;&lt;/h3&gt;" style="shape=cube;whiteSpace=wrap;html=1;boundedLbl=1;backgroundOutline=1;darkOpacity=0.05;darkOpacity2=0.1;align=center;size=25;" vertex="1" parent="1">
          <mxGeometry x="-120" y="-2275" width="490" height="715" as="geometry" />
        </mxCell>
        <mxCell id="ziZQvLNmpFWHpJ9P69S1-8" value="&lt;h3 style=&quot;margin-top: -85px; margin-bottom: 0px; padding-top: 0px;&quot;&gt;&lt;br&gt;&lt;/h3&gt;" style="shape=cube;whiteSpace=wrap;html=1;boundedLbl=1;backgroundOutline=1;darkOpacity=0.05;darkOpacity2=0.1;align=center;" vertex="1" parent="1">
          <mxGeometry x="-70" y="-2188" width="420" height="600" as="geometry" />
        </mxCell>
        <mxCell id="ziZQvLNmpFWHpJ9P69S1-11" value="&lt;h1 style=&quot;margin-top: 0px; margin-bottom: 0px; padding-top: 0px;&quot;&gt;Wearable Device&lt;/h1&gt;" style="text;html=1;align=center;verticalAlign=middle;whiteSpace=wrap;rounded=0;" vertex="1" parent="1">
          <mxGeometry x="-575" y="-2175" width="220" height="30" as="geometry" />
        </mxCell>
        <mxCell id="ziZQvLNmpFWHpJ9P69S1-12" value="&lt;h1 style=&quot;margin-top: 0px; margin-bottom: 0px; padding-top: 0px;&quot;&gt;Browser&lt;/h1&gt;" style="text;html=1;align=center;verticalAlign=middle;whiteSpace=wrap;rounded=0;" vertex="1" parent="1">
          <mxGeometry x="-647.5" y="-1862" width="195" height="30" as="geometry" />
        </mxCell>
        <mxCell id="ziZQvLNmpFWHpJ9P69S1-13" value="&lt;h1 style=&quot;margin-top: 0px; margin-bottom: 0px; padding-top: 0px;&quot;&gt;Backend Server&lt;/h1&gt;" style="text;html=1;align=center;verticalAlign=middle;whiteSpace=wrap;rounded=0;" vertex="1" parent="1">
          <mxGeometry x="45" y="-2150" width="210" height="30" as="geometry" />
        </mxCell>
        <mxCell id="ziZQvLNmpFWHpJ9P69S1-18" value="&lt;h3 style=&quot;margin-top: -85px; margin-bottom: 0px; padding-top: 0px;&quot;&gt;&lt;br&gt;&lt;/h3&gt;" style="shape=cube;whiteSpace=wrap;html=1;boundedLbl=1;backgroundOutline=1;darkOpacity=0.05;darkOpacity2=0.1;align=center;" vertex="1" parent="1">
          <mxGeometry x="-705" y="-1822" width="335" height="197" as="geometry" />
        </mxCell>
        <mxCell id="ziZQvLNmpFWHpJ9P69S1-19" value="&lt;h2 style=&quot;margin-top: 0px; margin-bottom: 0px; padding-top: 0px;&quot;&gt;Web APP&lt;/h2&gt;" style="text;html=1;align=center;verticalAlign=middle;whiteSpace=wrap;rounded=0;" vertex="1" parent="1">
          <mxGeometry x="-620" y="-1785" width="140" height="30" as="geometry" />
        </mxCell>
        <mxCell id="ziZQvLNmpFWHpJ9P69S1-20" value="" style="shape=cube;whiteSpace=wrap;html=1;boundedLbl=1;backgroundOutline=1;darkOpacity=0.05;darkOpacity2=0.1;align=center;" vertex="1" parent="1">
          <mxGeometry x="-575" y="-2135" width="205" height="110" as="geometry" />
        </mxCell>
        <mxCell id="ziZQvLNmpFWHpJ9P69S1-21" value="&lt;h2&gt;&lt;font style=&quot;font-size: 20px;&quot;&gt;GPS/RFID&amp;nbsp;&lt;br&gt;tracking&lt;/font&gt;&lt;/h2&gt;" style="text;html=1;align=center;verticalAlign=middle;whiteSpace=wrap;rounded=0;" vertex="1" parent="1">
          <mxGeometry x="-530" y="-2100" width="140" height="40" as="geometry" />
        </mxCell>
        <mxCell id="ziZQvLNmpFWHpJ9P69S1-22" style="edgeStyle=orthogonalEdgeStyle;rounded=0;orthogonalLoop=1;jettySize=auto;html=1;exitX=0.5;exitY=1;exitDx=0;exitDy=0;" edge="1" parent="1" source="ziZQvLNmpFWHpJ9P69S1-21" target="ziZQvLNmpFWHpJ9P69S1-21">
          <mxGeometry relative="1" as="geometry" />
        </mxCell>
        <mxCell id="ziZQvLNmpFWHpJ9P69S1-23" value="&lt;h3 style=&quot;margin-top: -85px; margin-bottom: 0px; padding-top: 0px;&quot;&gt;&lt;br&gt;&lt;/h3&gt;" style="shape=cube;whiteSpace=wrap;html=1;boundedLbl=1;backgroundOutline=1;darkOpacity=0.05;darkOpacity2=0.1;align=center;" vertex="1" parent="1">
          <mxGeometry x="25" y="-2090" width="255" height="130" as="geometry" />
        </mxCell>
        <mxCell id="ziZQvLNmpFWHpJ9P69S1-24" value="&lt;h3 style=&quot;margin-top: -85px; margin-bottom: 0px; padding-top: 0px;&quot;&gt;&lt;br&gt;&lt;/h3&gt;" style="shape=cube;whiteSpace=wrap;html=1;boundedLbl=1;backgroundOutline=1;darkOpacity=0.05;darkOpacity2=0.1;align=center;" vertex="1" parent="1">
          <mxGeometry x="25" y="-1930" width="255" height="130" as="geometry" />
        </mxCell>
        <mxCell id="ziZQvLNmpFWHpJ9P69S1-25" value="&lt;h3 style=&quot;margin-top: -85px; margin-bottom: 0px; padding-top: 0px;&quot;&gt;&lt;br&gt;&lt;/h3&gt;" style="shape=cube;whiteSpace=wrap;html=1;boundedLbl=1;backgroundOutline=1;darkOpacity=0.05;darkOpacity2=0.1;align=center;" vertex="1" parent="1">
          <mxGeometry x="25" y="-1770" width="255" height="130" as="geometry" />
        </mxCell>
        <mxCell id="ziZQvLNmpFWHpJ9P69S1-27" value="&lt;h2&gt;&lt;font style=&quot;font-size: 20px;&quot;&gt;API Service&lt;/font&gt;&lt;/h2&gt;" style="text;html=1;align=center;verticalAlign=middle;whiteSpace=wrap;rounded=0;" vertex="1" parent="1">
          <mxGeometry x="122.5" y="-2050" width="60" height="30" as="geometry" />
        </mxCell>
        <mxCell id="ziZQvLNmpFWHpJ9P69S1-29" value="&lt;h2&gt;&lt;font style=&quot;font-size: 20px;&quot;&gt;Notifications Engine&lt;/font&gt;&lt;/h2&gt;" style="text;html=1;align=center;verticalAlign=middle;whiteSpace=wrap;rounded=0;" vertex="1" parent="1">
          <mxGeometry x="122.5" y="-1890" width="60" height="30" as="geometry" />
        </mxCell>
        <mxCell id="ziZQvLNmpFWHpJ9P69S1-30" value="&lt;h2&gt;&lt;font style=&quot;font-size: 20px;&quot;&gt;Device managment&lt;/font&gt;&lt;/h2&gt;" style="text;html=1;align=center;verticalAlign=middle;whiteSpace=wrap;rounded=0;" vertex="1" parent="1">
          <mxGeometry x="120" y="-1730" width="60" height="30" as="geometry" />
        </mxCell>
        <mxCell id="pkMM4M_mx8QPYRCtAJ-O-3" value="&lt;h3 style=&quot;margin-top: -85px; margin-bottom: 0px; padding-top: 0px;&quot;&gt;&lt;br&gt;&lt;/h3&gt;" style="shape=cube;whiteSpace=wrap;html=1;boundedLbl=1;backgroundOutline=1;darkOpacity=0.05;darkOpacity2=0.1;align=center;" vertex="1" parent="1">
          <mxGeometry x="440" y="-2160" width="290" height="380" as="geometry" />
        </mxCell>
        <mxCell id="ziZQvLNmpFWHpJ9P69S1-45" value="" style="strokeWidth=2;html=1;shape=mxgraph.flowchart.database;whiteSpace=wrap;direction=east;" vertex="1" parent="1">
          <mxGeometry x="511" y="-2080" width="180" height="280" as="geometry" />
        </mxCell>
        <mxCell id="ziZQvLNmpFWHpJ9P69S1-46" value="&lt;h1&gt;SQL&lt;/h1&gt;&lt;h1&gt;Database&lt;/h1&gt;" style="text;html=1;align=center;verticalAlign=middle;whiteSpace=wrap;rounded=0;" vertex="1" parent="1">
          <mxGeometry x="571" y="-1940" width="60" height="30" as="geometry" />
        </mxCell>
        <mxCell id="ziZQvLNmpFWHpJ9P69S1-48" value="" style="shape=cube;whiteSpace=wrap;html=1;boundedLbl=1;backgroundOutline=1;darkOpacity=0.05;darkOpacity2=0.1;" vertex="1" parent="1">
          <mxGeometry x="-660" y="-1747" width="132.5" height="99.5" as="geometry" />
        </mxCell>
        <mxCell id="ziZQvLNmpFWHpJ9P69S1-49" value="" style="shape=cube;whiteSpace=wrap;html=1;boundedLbl=1;backgroundOutline=1;darkOpacity=0.05;darkOpacity2=0.1;" vertex="1" parent="1">
          <mxGeometry x="-510" y="-1748.25" width="120" height="102" as="geometry" />
        </mxCell>
        <mxCell id="ziZQvLNmpFWHpJ9P69S1-50" value="&lt;h3&gt;&lt;span style=&quot;background-color: initial; font-weight: normal;&quot;&gt;&lt;font style=&quot;font-size: 20px;&quot;&gt;Beachgoer&amp;nbsp;&lt;/font&gt;&lt;/span&gt;&lt;/h3&gt;&lt;h3&gt;&lt;span style=&quot;background-color: initial; font-weight: normal;&quot;&gt;&lt;font style=&quot;font-size: 20px;&quot;&gt;Interface&lt;/font&gt;&lt;/span&gt;&lt;/h3&gt;" style="text;html=1;align=center;verticalAlign=middle;whiteSpace=wrap;rounded=0;" vertex="1" parent="1">
          <mxGeometry x="-635" y="-1747" width="107.5" height="110" as="geometry" />
        </mxCell>
        <mxCell id="ziZQvLNmpFWHpJ9P69S1-51" value="&lt;h3&gt;&lt;font style=&quot;font-size: 20px;&quot;&gt;&lt;span style=&quot;background-color: initial; font-weight: normal;&quot;&gt;Lifeguard&lt;/span&gt;&lt;span style=&quot;background-color: initial; font-weight: normal;&quot;&gt;&amp;nbsp;&lt;/span&gt;&lt;/font&gt;&lt;/h3&gt;&lt;h3&gt;&lt;span style=&quot;background-color: initial; font-weight: normal;&quot;&gt;&lt;font style=&quot;font-size: 20px;&quot;&gt;Interface&lt;/font&gt;&lt;/span&gt;&lt;/h3&gt;" style="text;html=1;align=center;verticalAlign=middle;whiteSpace=wrap;rounded=0;" vertex="1" parent="1">
          <mxGeometry x="-500" y="-1750" width="117.5" height="110" as="geometry" />
        </mxCell>
        <mxCell id="ziZQvLNmpFWHpJ9P69S1-56" value="" style="endArrow=classic;startArrow=classic;html=1;rounded=0;entryX=-0.012;entryY=0.568;entryDx=0;entryDy=0;entryPerimeter=0;exitX=1.008;exitY=0.448;exitDx=0;exitDy=0;exitPerimeter=0;" edge="1" parent="1" source="ziZQvLNmpFWHpJ9P69S1-8" target="ziZQvLNmpFWHpJ9P69S1-45">
          <mxGeometry width="50" height="50" relative="1" as="geometry">
            <mxPoint x="300" y="-1910" as="sourcePoint" />
            <mxPoint x="350" y="-1960" as="targetPoint" />
          </mxGeometry>
        </mxCell>
        <mxCell id="ziZQvLNmpFWHpJ9P69S1-57" value="PROTOCOL TO define" style="edgeLabel;html=1;align=center;verticalAlign=middle;resizable=0;points=[];" connectable="0" vertex="1" parent="ziZQvLNmpFWHpJ9P69S1-56">
          <mxGeometry x="-0.1349" y="2" relative="1" as="geometry">
            <mxPoint x="7" y="-8" as="offset" />
          </mxGeometry>
        </mxCell>
        <mxCell id="ziZQvLNmpFWHpJ9P69S1-58" value="" style="endArrow=classic;startArrow=classic;html=1;rounded=0;exitX=0.997;exitY=0.467;exitDx=0;exitDy=0;exitPerimeter=0;entryX=-0.003;entryY=0.715;entryDx=0;entryDy=0;entryPerimeter=0;" edge="1" parent="1" source="ziZQvLNmpFWHpJ9P69S1-2" target="ziZQvLNmpFWHpJ9P69S1-8">
          <mxGeometry width="50" height="50" relative="1" as="geometry">
            <mxPoint x="-220.00000000000006" y="-1758" as="sourcePoint" />
            <mxPoint x="-58.799999999999955" y="-1821.5202693965516" as="targetPoint" />
          </mxGeometry>
        </mxCell>
        <mxCell id="ziZQvLNmpFWHpJ9P69S1-59" value="&lt;font style=&quot;font-size: 20px;&quot;&gt;REST API or&amp;nbsp;&lt;/font&gt;&lt;div&gt;&lt;font style=&quot;font-size: 20px;&quot;&gt;WEBSOCKET&lt;/font&gt;&lt;/div&gt;" style="edgeLabel;html=1;align=center;verticalAlign=middle;resizable=0;points=[];" connectable="0" vertex="1" parent="ziZQvLNmpFWHpJ9P69S1-58">
          <mxGeometry x="-0.4815" y="-3" relative="1" as="geometry">
            <mxPoint x="64" y="33" as="offset" />
          </mxGeometry>
        </mxCell>
        <mxCell id="pkMM4M_mx8QPYRCtAJ-O-1" value="&lt;h1 style=&quot;margin-top: 0px; margin-bottom: 0px; padding-top: 0px;&quot;&gt;Devise 1&lt;/h1&gt;" style="text;html=1;align=center;verticalAlign=middle;whiteSpace=wrap;rounded=0;" vertex="1" parent="1">
          <mxGeometry x="40" y="-2250" width="220" height="30" as="geometry" />
        </mxCell>
        <mxCell id="pkMM4M_mx8QPYRCtAJ-O-4" value="&lt;h1 style=&quot;margin-top: 0px; margin-bottom: 0px; padding-top: 0px;&quot;&gt;Devise 2&lt;/h1&gt;" style="text;html=1;align=center;verticalAlign=middle;whiteSpace=wrap;rounded=0;" vertex="1" parent="1">
          <mxGeometry x="475" y="-2125" width="220" height="30" as="geometry" />
        </mxCell>
        <mxCell id="pkMM4M_mx8QPYRCtAJ-O-6" value="&lt;h1 style=&quot;margin-top: 0px; margin-bottom: 0px; padding-top: 0px;&quot;&gt;Personal Device&lt;/h1&gt;" style="text;html=1;align=center;verticalAlign=middle;whiteSpace=wrap;rounded=0;" vertex="1" parent="1">
          <mxGeometry x="-660" y="-1925" width="220" height="30" as="geometry" />
        </mxCell>
        <mxCell id="pkMM4M_mx8QPYRCtAJ-O-7" value="" style="endArrow=classic;startArrow=classic;html=1;rounded=0;exitX=1.007;exitY=0.651;exitDx=0;exitDy=0;exitPerimeter=0;entryX=0.001;entryY=0.273;entryDx=0;entryDy=0;entryPerimeter=0;" edge="1" parent="1" source="ziZQvLNmpFWHpJ9P69S1-6" target="pkMM4M_mx8QPYRCtAJ-O-2">
          <mxGeometry width="50" height="50" relative="1" as="geometry">
            <mxPoint x="-220" y="-2110" as="sourcePoint" />
            <mxPoint x="-170" y="-2160" as="targetPoint" />
          </mxGeometry>
        </mxCell>
        <mxCell id="pkMM4M_mx8QPYRCtAJ-O-8" value="&lt;font style=&quot;font-size: 20px;&quot;&gt;Wireless&amp;nbsp;&lt;/font&gt;&lt;div&gt;&lt;font style=&quot;font-size: 20px;&quot;&gt;communications&lt;/font&gt;&lt;/div&gt;" style="edgeLabel;html=1;align=center;verticalAlign=middle;resizable=0;points=[];" connectable="0" vertex="1" parent="pkMM4M_mx8QPYRCtAJ-O-7">
          <mxGeometry x="-0.2299" relative="1" as="geometry">
            <mxPoint x="12" y="-40" as="offset" />
          </mxGeometry>
        </mxCell>
      </root>
    </mxGraphModel>
  </diagram>
</mxfile>
